<svg width="213" height="51" viewBox="0 0 213 51" fill="none" xmlns="http://www.w3.org/2000/svg">
<g id="partyrentalstudio 1" clip-path="url(#clip0_2259_3311)">
<g id="maroon">
<path id="Vector" fill-rule="evenodd" clip-rule="evenodd" d="M203.346 24.893C203.346 25.9783 203.531 26.8937 203.907 27.6498C204.277 28.4058 204.817 28.9819 205.537 29.383C206.257 29.7791 207.137 29.9745 208.176 29.9797C209.215 29.9745 210.099 29.7791 210.814 29.383C211.534 28.9819 212.069 28.4058 212.445 27.6498C212.815 26.8937 213.005 25.9783 213.005 24.893V14.3701C213.005 13.2849 212.815 12.3642 212.445 11.6082C212.074 10.8521 211.534 10.2761 210.814 9.87493C210.094 9.4789 209.215 9.28346 208.176 9.27832C207.137 9.27832 206.252 9.4789 205.537 9.87493C204.817 10.2761 204.277 10.847 203.907 11.6082C203.537 12.3642 203.346 13.2849 203.346 14.3701V24.893ZM206.525 14.1695C206.525 13.4494 206.679 12.9403 206.967 12.6265C207.26 12.3179 207.661 12.1636 208.171 12.1739C208.68 12.1636 209.081 12.3179 209.374 12.6265C209.662 12.9403 209.811 13.4494 209.816 14.1695V25.0988C209.816 25.8188 209.662 26.328 209.374 26.6417C209.081 26.9503 208.68 27.1046 208.171 27.0943C207.661 27.1046 207.26 26.9503 206.967 26.6417C206.679 26.328 206.53 25.8188 206.525 25.0988V14.1643V14.1695ZM198.038 29.7534H201.022L201.006 10.6567L198.038 13.2437V29.7482V29.7534ZM156.672 14.5398C156.672 15.3524 156.79 16.0725 157.016 16.7154C157.238 17.348 157.531 17.924 157.901 18.4281C158.266 18.9321 158.672 19.4001 159.115 19.827C159.552 20.2487 159.999 20.6602 160.437 21.0511C160.879 21.442 161.285 21.8431 161.65 22.2494C162.021 22.6558 162.314 23.0981 162.54 23.5712C162.761 24.0444 162.88 24.569 162.885 25.1553C162.885 25.6337 162.818 26.0091 162.684 26.2971C162.55 26.5851 162.36 26.7909 162.113 26.9195C161.866 27.048 161.573 27.1098 161.234 27.1046C160.894 27.1046 160.601 27.048 160.359 26.9195C160.113 26.7909 159.927 26.5851 159.789 26.2971C159.655 26.0091 159.588 25.6337 159.588 25.1553V23.7255H156.579V24.9548C156.579 26.0297 156.759 26.9349 157.114 27.6806C157.469 28.4264 157.999 29.0024 158.703 29.3985C159.408 29.7894 160.277 29.9848 161.321 29.9899C162.36 29.9848 163.235 29.7894 163.939 29.3985C164.644 29.0024 165.173 28.4316 165.528 27.6806C165.883 26.9297 166.063 26.0245 166.063 24.9548C166.063 24.1421 165.945 23.4169 165.719 22.7792C165.492 22.1466 165.199 21.5705 164.829 21.0665C164.464 20.5625 164.057 20.0944 163.615 19.6676C163.178 19.2458 162.73 18.8344 162.293 18.4435C161.851 18.0526 161.445 17.6514 161.08 17.24C160.709 16.8337 160.416 16.3913 160.19 15.9182C159.969 15.445 159.85 14.9153 159.85 14.3341C159.85 13.6243 159.989 13.1203 160.267 12.8065C160.447 12.606 160.678 12.4722 160.966 12.4054H164.52H167.843V29.7482H171.021V12.4054H174.503V24.9239C174.503 26.0091 174.678 26.9246 175.038 27.6806C175.393 28.4367 175.923 29.0127 176.627 29.4139C177.332 29.8099 178.201 30.0054 179.245 30.0105C180.284 30.0105 181.159 29.8099 181.863 29.4139C182.568 29.0127 183.097 28.4367 183.452 27.6806C183.807 26.9246 183.987 26.0091 183.987 24.9239V12.4054H191.409C191.748 12.4002 192.036 12.462 192.283 12.5905C192.525 12.7191 192.705 12.93 192.839 13.218C192.962 13.506 193.029 13.8866 193.029 14.3701V24.893C193.029 25.3765 192.962 25.7571 192.839 26.0451C192.71 26.3331 192.525 26.5389 192.283 26.6726C192.036 26.8012 191.748 26.8629 191.409 26.8629H189.619V14.5758H186.441V29.7482H191.471C193.06 29.7482 194.248 29.3162 195.035 28.4624C195.822 27.6086 196.213 26.3691 196.213 24.749V14.5141C196.213 12.8888 195.822 11.6545 195.035 10.8007C194.243 9.94693 193.06 9.52005 191.471 9.51491H183.992H180.984V12.4054V25.1245C180.984 25.6079 180.917 25.9885 180.783 26.2766C180.649 26.5646 180.459 26.7703 180.212 26.904C179.965 27.0326 179.672 27.0995 179.333 27.0943C178.998 27.0943 178.7 27.0378 178.453 26.904C178.206 26.7754 178.021 26.5697 177.887 26.2766C177.754 25.9885 177.687 25.6079 177.687 25.1245V9.50976H164.52L161.455 9.49948H161.445H161.429H161.368H161.316H160.863L160.853 9.52005C160.046 9.57662 159.357 9.76692 158.781 10.0909C158.086 10.487 157.562 11.0527 157.212 11.8036C156.867 12.5494 156.687 13.4649 156.687 14.5347L156.672 14.5398Z" fill="white"/>
</g>
<g id="grey">
<path id="Vector_2" fill-rule="evenodd" clip-rule="evenodd" d="M13.7684 12.4209C14.1079 12.4209 14.3907 12.4723 14.6222 12.5958C14.8588 12.714 15.0336 12.9146 15.1519 13.1924C15.2702 13.4701 15.3319 13.8507 15.3319 14.329V17.3635C15.3319 17.8418 15.2754 18.2224 15.1519 18.5001C15.0336 18.7779 14.8588 18.9785 14.6222 19.0967C14.3907 19.215 14.1079 19.2768 13.7684 19.2716H12.2666V12.4209H13.7684ZM13.7684 9.53041H9.08296V29.7637H12.2614V22.1621H13.7633C15.3525 22.1621 16.5406 21.7301 17.3275 20.8763C18.1144 20.0225 18.5053 18.783 18.5053 17.1629V14.5347C18.5053 12.9095 18.1144 11.6751 17.3275 10.8214C16.5354 9.96759 15.3525 9.5407 13.7633 9.53556L13.7684 9.53041ZM26.8784 13.1152L28.4111 23.3502H25.3457L26.8784 13.1152ZM29.3625 9.53041H24.708L21.4678 29.7689H24.3891L24.9394 26.0966H28.8431L29.3934 29.7689H32.6028L29.3625 9.53041ZM39.8752 12.4209C40.4358 12.4209 40.8473 12.5855 41.1096 12.9198C41.3719 13.2541 41.5005 13.7838 41.4953 14.5039V16.4994C41.4953 17.0343 41.4182 17.4561 41.2639 17.7698C41.1096 18.0835 40.8936 18.3098 40.6107 18.4436C40.3278 18.5721 39.9832 18.639 39.5872 18.6339H38.3426V12.4209H39.8752ZM45.0493 29.7689C44.895 29.3986 44.7972 29.018 44.7561 28.6271C44.715 28.2362 44.6995 27.799 44.7047 27.3104V24.1885C44.7047 23.4839 44.643 22.8513 44.5144 22.2804C44.3807 21.7146 44.1595 21.2312 43.8509 20.8249C43.5423 20.4185 43.1257 20.1048 42.596 19.8785C43.3057 19.5442 43.8252 19.0402 44.1646 18.3561C44.5092 17.6772 44.6738 16.8132 44.6738 15.7742V14.185C44.6738 13.1461 44.5144 12.2769 44.1801 11.5877C43.8509 10.8985 43.3417 10.3842 42.6474 10.0396C41.9479 9.70014 41.053 9.53041 39.9575 9.53041H35.1589V29.7637H38.3374V21.5243H39.438C39.9215 21.5243 40.3175 21.6066 40.6158 21.7763C40.9244 21.9461 41.1507 22.2187 41.2999 22.5941C41.4439 22.9747 41.5159 23.4736 41.5159 24.0959V27.2744C41.5159 27.6859 41.5262 28.0202 41.5365 28.2876C41.5519 28.5551 41.5725 28.7711 41.5982 28.9408C41.6239 29.1105 41.6496 29.2597 41.6908 29.3831C41.7216 29.5066 41.7628 29.6351 41.8039 29.7586H45.0441L45.0493 29.7689ZM46.1396 12.4209H49.4621V29.7637H52.6406V12.4209H55.9631V9.53041H46.1345V12.4209H46.1396ZM61.42 29.7689H64.5985V23.0621L68.6154 9.53041H65.5809L63.1533 18.7521L60.7257 9.53041H57.4032L61.42 23.0621V29.7689ZM79.3646 12.4209C79.9252 12.4209 80.3367 12.5855 80.599 12.9198C80.8613 13.2541 80.9899 13.7838 80.9847 14.5039V16.4994C80.9847 17.0343 80.9076 17.4561 80.7533 17.7698C80.599 18.0835 80.383 18.3098 80.1001 18.4436C79.8172 18.5721 79.4726 18.639 79.0766 18.6339H77.8319V12.4209H79.3646ZM84.5387 29.7689C84.3844 29.3986 84.2866 29.018 84.2455 28.6271C84.2095 28.2362 84.1889 27.799 84.1941 27.3104V24.1885C84.1941 23.4839 84.1323 22.8513 84.0038 22.2804C83.87 21.7146 83.6489 21.2312 83.3403 20.8249C83.0317 20.4185 82.61 20.1048 82.0854 19.8785C82.7951 19.5442 83.3146 19.0402 83.654 18.3561C83.9986 17.6772 84.1632 16.8132 84.1632 15.7742V14.185C84.1632 13.1461 84.0038 12.2769 83.6695 11.5877C83.3403 10.8985 82.8311 10.3842 82.1368 10.0396C81.4373 9.70014 80.5424 9.53041 79.4469 9.53041H74.6483V29.7637H77.8268V21.5243H78.9274C79.4109 21.5243 79.8018 21.6066 80.1052 21.7763C80.4138 21.9461 80.6401 22.2187 80.7893 22.5941C80.9333 22.9747 81.0053 23.4736 81.0053 24.0959V27.2744C81.0053 27.6859 81.0156 28.0202 81.0259 28.2876C81.0413 28.5551 81.0567 28.7711 81.0876 28.9408C81.1133 29.1105 81.139 29.2597 81.1802 29.3831C81.2162 29.5066 81.2522 29.6351 81.2985 29.7586H84.5335L84.5387 29.7689ZM89.7333 12.4209H95.2262V9.53041H86.5548V29.7637H95.2262V26.8732H89.7333V20.9483H94.0999V18.0578H89.7333V12.4209ZM104.268 29.7689H107.534V9.53041H104.7V21.6426L101.434 9.53041H97.4429V29.7637H100.303V15.1108L104.263 29.7689H104.268ZM109.175 12.4209H112.497V29.7637H115.676V12.4209H118.998V9.53041H109.169V12.4209H109.175ZM124.141 13.1152L125.674 23.3502H122.609L124.141 13.1152ZM126.625 9.53041H121.971L118.736 29.7689H121.657L122.207 26.0966H126.111L126.661 29.7689H129.871L126.631 9.53041H126.625ZM131.619 29.7689H140.034V26.8784H134.803V9.53041H131.625V29.7637L131.619 29.7689ZM146.221 5.00009H147.8V37.0097H146.221V5.00009ZM198.039 12.1843L201.022 9.50984H198.039V12.1843ZM10.6465 4.69067C26.935 4.69067 21.8895 28.9614 12.3746 32.1604C11.9991 32.289 11.4437 32.253 11.7471 32.721C11.922 32.9936 12.1586 32.9422 12.1586 33.2199C12.1586 33.4514 11.634 33.652 10.9345 33.6983H10.7391L10.6825 33.7908C9.71043 35.4315 8.75894 37.0362 10.2145 39.1706C10.7648 39.9781 11.4643 40.693 12.1432 41.3925C13.7375 43.0331 15.2291 44.5658 14.5965 46.9677C14.3804 47.7854 13.861 48.5826 13.2181 49.3233C12.7243 49.889 12.1586 50.4188 11.598 50.9022L11.2482 50.5833C11.7574 50.141 12.246 49.673 12.6935 49.1587C13.3107 48.4489 13.8095 47.6826 14.0153 46.9163C14.6119 44.643 13.1769 43.1669 11.634 41.5776C10.9499 40.873 10.2402 40.1427 9.66928 39.3095C8.12632 37.0516 9.11382 35.3801 10.1219 33.6725H9.97787C9.43784 33.5903 9.06238 33.4205 9.06238 33.2199C9.06238 33.0194 9.20639 32.9679 9.35555 32.8496C9.98816 32.3302 9.00067 32.3353 8.62521 32.217C-0.797106 29.2237 -5.55455 4.69067 10.6465 4.69067Z" fill="white"/>
</g>
</g>
<defs>
<clipPath id="clip0_2259_3311">
<rect width="213" height="50.9021" fill="white"/>
</clipPath>
</defs>
</svg>
