<?xml version="1.0" encoding="utf-8"?>
<!-- Generator: Adobe Illustrator 19.2.1, SVG Export Plug-In . SVG Version: 6.00 Build 0)  -->
<svg version="1.1" id="Layer_1" xmlns="http://www.w3.org/2000/svg" xmlns:xlink="http://www.w3.org/1999/xlink" x="0px" y="0px"
	 viewBox="0 0 414.1 99" style="enable-background:new 0 0 414.1 99;" xml:space="preserve">
<style type="text/css">
	.st0{fill-rule:evenodd;clip-rule:evenodd;fill:#FFFFFF;}
</style>
<path class="st0" d="M395.4,48.4c0,2.1,0.4,3.9,1.1,5.4c0.7,1.5,1.8,2.6,3.2,3.4c1.4,0.8,3.1,1.2,5.1,1.2c2,0,3.7-0.4,5.1-1.2
	c1.4-0.8,2.4-1.9,3.2-3.4c0.7-1.5,1.1-3.3,1.1-5.4V27.9c0-2.1-0.4-3.9-1.1-5.4c-0.7-1.5-1.8-2.6-3.2-3.4c-1.4-0.8-3.1-1.2-5.1-1.2
	c-2,0-3.7,0.4-5.1,1.2c-1.4,0.8-2.4,1.9-3.2,3.4c-0.7,1.5-1.1,3.3-1.1,5.4V48.4z M401.6,27.5c0-1.4,0.3-2.4,0.9-3
	c0.6-0.6,1.3-0.9,2.3-0.9c1,0,1.8,0.3,2.3,0.9c0.6,0.6,0.9,1.6,0.9,3v21.2c0,1.4-0.3,2.4-0.9,3c-0.6,0.6-1.3,0.9-2.3,0.9
	c-1,0-1.8-0.3-2.3-0.9c-0.6-0.6-0.9-1.6-0.9-3V27.5z M385.1,57.8h5.8l0-37.1l-5.8,5V57.8z M304.6,28.3c0,1.6,0.2,3,0.7,4.2
	c0.4,1.2,1,2.3,1.7,3.3c0.7,1,1.5,1.9,2.4,2.7c0.9,0.8,1.7,1.6,2.6,2.4c0.9,0.8,1.6,1.5,2.4,2.3c0.7,0.8,1.3,1.6,1.7,2.6
	c0.4,0.9,0.7,1.9,0.7,3.1c0,0.9-0.1,1.7-0.4,2.2c-0.3,0.6-0.6,1-1.1,1.2c-0.5,0.3-1,0.4-1.7,0.4c-0.7,0-1.2-0.1-1.7-0.4
	c-0.5-0.3-0.8-0.6-1.1-1.2c-0.3-0.6-0.4-1.3-0.4-2.2v-2.8h-5.8v2.4c0,2.1,0.3,3.8,1,5.3c0.7,1.5,1.7,2.6,3.1,3.3
	c1.4,0.8,3.1,1.1,5.1,1.1c2,0,3.7-0.4,5.1-1.1c1.4-0.8,2.4-1.9,3.1-3.3c0.7-1.5,1-3.2,1-5.3c0-1.6-0.2-3-0.7-4.2
	c-0.4-1.2-1-2.3-1.7-3.3c-0.7-1-1.5-1.9-2.4-2.7c-0.9-0.8-1.7-1.6-2.6-2.4c-0.9-0.8-1.6-1.5-2.4-2.3c-0.7-0.8-1.3-1.6-1.7-2.6
	c-0.4-0.9-0.7-1.9-0.7-3.1c0-1.4,0.3-2.4,0.8-3c0.4-0.4,0.8-0.7,1.4-0.8l6.9,0h6.5v33.7h6.2V24.1h6.8v24.3c0,2.1,0.3,3.9,1,5.4
	c0.7,1.5,1.7,2.6,3.1,3.4c1.4,0.8,3.1,1.2,5.1,1.2c2,0,3.7-0.4,5.1-1.2c1.4-0.8,2.4-1.9,3.1-3.4c0.7-1.5,1-3.3,1-5.4V24.1h2.4h2.3
	h6.2h1.7h1.7c0.7,0,1.2,0.1,1.7,0.4c0.5,0.3,0.8,0.7,1.1,1.2c0.2,0.6,0.4,1.3,0.4,2.2v20.5c0,0.9-0.1,1.7-0.4,2.2
	c-0.3,0.6-0.6,1-1.1,1.2c-0.5,0.3-1,0.4-1.7,0.4h-3.5V28.3h-6.2v29.5h9.8c3.1,0,5.4-0.8,6.9-2.5c1.5-1.7,2.3-4.1,2.3-7.2V28.2
	c0-3.2-0.8-5.6-2.3-7.2c-1.5-1.7-3.8-2.5-6.9-2.5h-1.9h-7.9h-4.8v0h-5.8v0h0v5.6h0v24.7c0,0.9-0.1,1.7-0.4,2.2
	c-0.3,0.6-0.6,1-1.1,1.2c-0.5,0.3-1,0.4-1.7,0.4c-0.7,0-1.2-0.1-1.7-0.4c-0.5-0.3-0.8-0.7-1.1-1.2c-0.3-0.6-0.4-1.3-0.4-2.2V18.5
	h-1.3h-4.9h-19.4l-6,0h0l0,0h0h0l0,0h0l-0.1,0l-0.1,0l-0.9,0l0,0c-1.6,0.1-2.9,0.5-4,1.1c-1.3,0.8-2.4,1.9-3.1,3.3
	C305,24.4,304.6,26.2,304.6,28.3z"/>
<path class="st0" d="M26.8,24.1c0.7,0,1.2,0.1,1.7,0.3c0.5,0.2,0.8,0.6,1,1.2c0.2,0.5,0.3,1.3,0.3,2.2v5.9c0,0.9-0.1,1.7-0.3,2.2
	c-0.2,0.5-0.6,0.9-1,1.2c-0.4,0.2-1,0.3-1.7,0.3h-2.9V24.1H26.8z M26.8,18.5h-9.1v39.3h6.2V43.1h2.9c3.1,0,5.4-0.8,6.9-2.5
	c1.5-1.7,2.3-4.1,2.3-7.2v-5.1c0-3.2-0.8-5.6-2.3-7.2C32.2,19.4,29.9,18.5,26.8,18.5z M52.3,25.5l3,19.9h-6L52.3,25.5z M57.1,18.5
	h-9l-6.3,39.3h5.7l1.1-7.1h7.6l1.1,7.1h6.2L57.1,18.5z M77.5,24.1c1.1,0,1.9,0.3,2.4,1c0.5,0.7,0.8,1.7,0.7,3.1v3.9
	c0,1-0.1,1.9-0.4,2.5c-0.3,0.6-0.7,1-1.3,1.3c-0.6,0.3-1.2,0.4-2,0.4h-2.4V24.1H77.5z M87.6,57.9c-0.3-0.7-0.5-1.5-0.6-2.2
	c-0.1-0.8-0.1-1.6-0.1-2.6V47c0-1.4-0.1-2.6-0.4-3.7c-0.3-1.1-0.7-2-1.3-2.8c-0.6-0.8-1.4-1.4-2.4-1.8c1.4-0.6,2.4-1.6,3.1-3
	c0.7-1.3,1-3,1-5v-3.1c0-2-0.3-3.7-1-5c-0.6-1.3-1.6-2.3-3-3c-1.4-0.7-3.1-1-5.2-1h-9.3v39.3h6.2v-16h2.1c0.9,0,1.7,0.2,2.3,0.5
	c0.6,0.3,1,0.9,1.3,1.6c0.3,0.7,0.4,1.7,0.4,2.9V53c0,0.8,0,1.5,0,2c0,0.5,0.1,0.9,0.1,1.3c0,0.3,0.1,0.6,0.2,0.9
	c0.1,0.2,0.1,0.5,0.2,0.7H87.6z M89.7,24.1h6.5v33.7h6.2V24.1h6.5v-5.6H89.7V24.1z M119.4,57.9h6.2v-13l7.8-26.3h-5.9l-4.7,17.9
	l-4.7-17.9h-6.5l7.8,26.3V57.9z M154.3,24.1c1.1,0,1.9,0.3,2.4,1c0.5,0.7,0.8,1.7,0.7,3.1v3.9c0,1-0.2,1.9-0.5,2.5
	c-0.3,0.6-0.7,1-1.3,1.3c-0.6,0.3-1.2,0.4-2,0.4h-2.4V24.1H154.3z M164.4,57.9c-0.3-0.7-0.5-1.5-0.6-2.2c-0.1-0.8-0.1-1.6-0.1-2.6
	V47c0-1.4-0.1-2.6-0.4-3.7c-0.3-1.1-0.7-2-1.3-2.8c-0.6-0.8-1.4-1.4-2.4-1.8c1.4-0.6,2.4-1.6,3.1-3c0.7-1.3,1-3,1-5v-3.1
	c0-2-0.3-3.7-1-5c-0.6-1.3-1.6-2.3-3-3c-1.4-0.7-3.1-1-5.2-1h-9.3v39.3h6.2v-16h2.1c0.9,0,1.7,0.2,2.3,0.5c0.6,0.3,1,0.9,1.3,1.6
	c0.3,0.7,0.4,1.7,0.4,2.9V53c0,0.8,0,1.5,0,2c0,0.5,0.1,0.9,0.1,1.3c0,0.3,0.1,0.6,0.2,0.9c0.1,0.2,0.1,0.5,0.2,0.7H164.4z
	 M174.5,24.1h10.7v-5.6h-16.9v39.3h16.9v-5.6h-10.7V40.7h8.5v-5.6h-8.5V24.1z M202.7,57.9h6.4V18.5h-5.5v23.6l-6.4-23.6h-7.8v39.3
	h5.6V29.4L202.7,57.9z M212.3,24.1h6.5v33.7h6.2V24.1h6.5v-5.6h-19.1V24.1z M241.4,25.5l3,19.9h-6L241.4,25.5z M246.2,18.5h-9
	l-6.3,39.3h5.7l1.1-7.1h7.6l1.1,7.1h6.2L246.2,18.5z M255.9,57.9h16.4v-5.6h-10.2V18.5h-6.2V57.9z M284.3,0h3.1v81.7h-3.1V0z
	 M385.1,23.7l5.8-5.2h-5.8V23.7z M20.7,9.1c31.7,0,21.9,47.2,3.4,53.4c-0.7,0.2-1.8,0.2-1.2,1.1c0.3,0.5,0.8,0.4,0.8,1
	c0,0.5-1,0.8-2.4,0.9l-0.4,0l-0.1,0.2c-1.9,3.2-3.7,6.3-0.9,10.5c1.1,1.6,2.4,3,3.7,4.3c3.1,3.2,6,6.2,4.8,10.8
	c-0.4,1.6-1.4,3.1-2.7,4.6c-1,1.1-2.1,2.1-3.2,3.1l-0.7-0.6c1-0.9,1.9-1.8,2.8-2.8c1.2-1.4,2.2-2.9,2.6-4.4
	c1.2-4.4-1.6-7.3-4.6-10.4c-1.3-1.4-2.7-2.8-3.8-4.4c-3-4.4-1.1-7.6,0.9-11l-0.3,0c-1-0.1-1.8-0.5-1.8-0.9c0-0.4,0.3-0.5,0.6-0.7
	c1.2-1-0.7-1-1.4-1.2C-1.6,56.8-10.8,9.1,20.7,9.1z"/>
</svg>
