<svg width="28" height="28" viewBox="0 0 28 28" fill="none" xmlns="http://www.w3.org/2000/svg">
<g id="006-map" clip-path="url(#clip0_2259_3207)">
<path id="Vector" d="M27.9328 26.8523L22.9919 15.3248C22.8621 15.0221 22.5643 14.8258 22.2351 14.8258H19.0972C20.3672 12.6071 21.4116 10.1515 21.4116 8.07379C21.4116 -2.62574 6.58868 -2.75626 6.58868 8.07379C6.58868 10.1515 7.63309 12.6071 8.90308 14.8258H5.76517C5.43576 14.8258 5.13797 15.0221 5.0083 15.3248L0.0674105 26.8523C-0.165011 27.3945 0.233182 28.0001 0.824277 28.0001H27.176C27.7658 28.0001 28.1657 27.3958 27.9328 26.8523ZM21.6918 16.4726L24.1299 22.1605C24.0536 22.2003 16.1184 26.3208 16.0616 26.3533H14.3379C14.2943 26.3046 14.6647 26.6769 9.29764 21.3105L12.2787 19.7848C12.8865 20.5605 13.3123 21.0533 13.3787 21.1298C13.7068 21.5075 14.2936 21.5068 14.6213 21.1298C14.7591 20.9713 16.4378 19.0262 18.0914 16.4726H21.6918ZM14.0001 1.65121C16.7764 1.65121 19.7645 3.66119 19.7645 8.07379C19.7645 11.784 15.6055 17.3055 14.0001 19.2982C12.3947 17.3053 8.23572 11.784 8.23572 8.07379C8.23572 3.63726 11.1307 1.65121 14.0001 1.65121ZM6.3082 16.4726C10.2974 16.4726 9.84408 16.4732 9.90796 16.4713C10.3717 17.1876 10.8374 17.856 11.2707 18.4507L3.8276 22.2601L6.3082 16.4726ZM2.81183 24.63L7.7572 22.099L12.0121 26.3533H2.07312L2.81183 24.63ZM19.6308 26.3533L24.7806 23.6783L25.9271 26.3533H19.6308Z" fill="white"/>
<path id="Vector_2" d="M16.4703 7.41507C16.4703 6.05301 15.362 4.94473 14 4.94473C12.6377 4.94473 11.5294 6.05301 11.5294 7.41507C11.5294 8.77713 12.6377 9.88519 14 9.88519C15.362 9.88519 16.4703 8.77713 16.4703 7.41507ZM13.1765 7.41507C13.1765 6.96091 13.5458 6.59155 14 6.59155C14.4539 6.59155 14.8235 6.96091 14.8235 7.41507C14.8235 7.86902 14.4539 8.23837 14 8.23837C13.5458 8.23837 13.1765 7.86902 13.1765 7.41507Z" fill="white"/>
</g>
<defs>
<clipPath id="clip0_2259_3207">
<rect width="28" height="28" fill="white"/>
</clipPath>
</defs>
</svg>
