<svg width="28" height="22" viewBox="0 0 28 22" fill="none" xmlns="http://www.w3.org/2000/svg">
<g id="Group">
<g id="Page-1_49_">
<g id="paperwork_export_49_">
<path id="signature_x2C_-name_x2C_-person_x2C_-distinctive_x2C_-identification_x2C_-authorization" d="M4.518 19.8678C4.518 20.3215 4.15024 20.6893 3.69652 20.6893C3.2428 20.6893 2.87504 20.3215 2.87504 19.8678C2.87504 18.7597 2.90515 17.6982 2.96554 16.696C2.58533 16.804 2.19759 16.8981 1.80398 16.9768C1.35911 17.0658 0.926371 16.7772 0.837365 16.3324C0.748415 15.8875 1.03691 15.4547 1.48178 15.3658C2.04094 15.2539 2.58594 15.1076 3.10974 14.9322C3.28664 13.251 3.56379 11.7911 3.94223 10.6288C4.84701 7.84989 6.4644 6.57397 8.58189 7.63269C10.6973 8.69041 10.7569 10.8976 9.11067 12.939C8.08859 14.2064 6.5151 15.3241 4.65306 16.1054C4.56344 17.2678 4.518 18.5311 4.518 19.8678ZM7.83182 11.9076C8.89491 10.5894 8.8685 9.61274 7.8472 9.10212C6.86387 8.61048 6.1417 9.18017 5.50448 11.1374C5.23066 11.9784 5.01246 13.0146 4.85161 14.2045C6.09808 13.5705 7.13549 12.7711 7.83182 11.9076ZM16.4996 8.36549L23.8927 0.972396C24.5343 0.330811 25.5746 0.330811 26.2162 0.972396L27.5188 2.27505C28.1604 2.91664 28.1604 3.95687 27.5188 4.59851L20.1257 11.9916C19.8176 12.2997 19.3997 12.4728 18.9639 12.4728H16.8398C16.3861 12.4728 16.0183 12.105 16.0183 11.6513V9.52717C16.0184 9.09149 16.1915 8.67358 16.4996 8.36549ZM18.9639 10.8299L23.8927 5.90117L22.59 4.59851L17.6612 9.52722V10.8299H18.9639ZM26.3571 3.43678L25.0544 2.13413L23.7518 3.43678L25.0544 4.73944L26.3571 3.43678ZM9.24352 17.1229C8.94478 17.4643 8.4258 17.4989 8.08439 17.2002C7.74298 16.9014 7.70833 16.3825 8.00712 16.0411L10.2792 13.4444C10.7273 12.9323 11.5057 12.8804 12.0179 13.3285C12.2453 13.5275 12.3917 13.8032 12.4291 14.103L12.5106 14.7549L13.0227 14.2144C13.4908 13.7204 14.2706 13.6993 14.7647 14.1674C14.8246 14.2241 14.8786 14.2868 14.926 14.3543L15.534 15.2212L18.2579 14.4459C18.6943 14.3217 19.1487 14.5747 19.2729 15.011C19.3971 15.4473 19.1441 15.9018 18.7077 16.026L15.7028 16.8813C15.1982 17.025 14.6579 16.8334 14.3567 16.4038L13.8696 15.7093L13.1053 16.5159C12.909 16.7231 12.6469 16.8557 12.3637 16.8911C11.6884 16.9755 11.0726 16.4965 10.9882 15.8212L10.9124 15.2155L9.24352 17.1229ZM23.8222 11.6513C23.8222 11.1976 24.19 10.8298 24.6437 10.8298C25.0975 10.8298 25.4652 11.1976 25.4652 11.6513V19.0444C25.4652 20.4054 24.3619 21.5088 23.0008 21.5088H6.98239C6.52872 21.5088 6.16091 21.141 6.16091 20.6873C6.16091 20.2336 6.52872 19.8658 6.98239 19.8658H23.0008C23.4544 19.8658 23.8222 19.4981 23.8222 19.0443V11.6513ZM17.6613 2.6153C18.115 2.6153 18.4828 2.98306 18.4828 3.43678C18.4828 3.8905 18.115 4.25826 17.6613 4.25826H2.46438C2.01072 4.25826 1.64291 4.62602 1.64291 5.07974V11.6514C1.64291 12.1051 1.27515 12.4729 0.821426 12.4729C0.367705 12.4729 0 12.105 0 11.6513V5.07968C0 3.71863 1.10333 2.6153 2.46438 2.6153H17.6613Z" fill="white"/>
</g>
</g>
</g>
</svg>
