<svg width="28" height="26" viewBox="0 0 28 26" fill="none" xmlns="http://www.w3.org/2000/svg">
<g id="Group">
<path id="Vector" d="M0.820379 22.0234H4.92193V24.4843C4.92193 24.9374 5.28921 25.3046 5.74224 25.3046H27.1797C27.6327 25.3046 28 24.9374 28 24.4843V3.15625C28 2.70321 27.6327 2.33593 27.1797 2.33593H23.0781V1.51562C23.0781 1.06259 22.7109 0.695312 22.2578 0.695312C21.8048 0.695312 21.4375 1.06259 21.4375 1.51562V2.33593H17.2813V1.51562C17.2813 1.06259 16.914 0.695312 16.461 0.695312C16.0079 0.695312 15.6407 1.06259 15.6407 1.51562V2.33593H11.5391V1.51562C11.5391 1.06259 11.1718 0.695312 10.7188 0.695312C10.2658 0.695312 9.89849 1.06259 9.89849 1.51562V2.33593H5.74224C5.28921 2.33593 4.92193 2.70321 4.92193 3.15625V8.07811C4.92193 14.1238 2.40932 18.7747 0.295216 20.5729C0.029873 20.794 -0.0685095 21.1576 0.0490137 21.4824C0.166646 21.8071 0.474974 22.0234 0.820379 22.0234ZM26.3594 23.664H6.56255V22.0234H22.2578C22.4497 22.0234 22.6356 21.9561 22.783 21.8333C23.7691 21.0119 25.2966 19.0564 26.3594 16.5518V23.664ZM6.56255 3.97656H9.89849V4.79687C9.89849 5.2499 10.2658 5.61718 10.7188 5.61718C11.1718 5.61718 11.5391 5.2499 11.5391 4.79687V3.97656H15.6407V4.79687C15.6407 5.2499 16.0079 5.61718 16.461 5.61718C16.914 5.61718 17.2813 5.2499 17.2813 4.79687V3.97656H21.4375V4.79687C21.4375 5.2499 21.8048 5.61718 22.2578 5.61718C22.7109 5.61718 23.0781 5.2499 23.0781 4.79687V3.97656H26.3594V7.2578H6.56255V3.97656ZM6.5485 8.89787H26.3448C26.16 14.1017 24.1628 18.196 21.9362 20.3828H2.68626C5.20915 17.1682 6.41315 12.9826 6.5485 8.89787Z" fill="white"/>
</g>
</svg>
