<svg width="26" height="26" viewBox="0 0 26 26" fill="none" xmlns="http://www.w3.org/2000/svg">
<g id="Icon">
<path id="Vector" d="M5.125 5.70834C5.60825 5.70834 6 5.31659 6 4.83334C6 4.35009 5.60825 3.95834 5.125 3.95834C4.64175 3.95834 4.25 4.35009 4.25 4.83334C4.25 5.31659 4.64175 5.70834 5.125 5.70834Z" fill="white"/>
<path id="Vector_2" d="M8.04175 5.70834C8.525 5.70834 8.91675 5.31659 8.91675 4.83334C8.91675 4.35009 8.525 3.95834 8.04175 3.95834C7.5585 3.95834 7.16675 4.35009 7.16675 4.83334C7.16675 5.31659 7.5585 5.70834 8.04175 5.70834Z" fill="white"/>
<path id="Vector_3" d="M10.9584 5.70834C11.4416 5.70834 11.8334 5.31659 11.8334 4.83334C11.8334 4.35009 11.4416 3.95834 10.9584 3.95834C10.4751 3.95834 10.0834 4.35009 10.0834 4.83334C10.0834 5.31659 10.4751 5.70834 10.9584 5.70834Z" fill="white"/>
<path id="Vector_4" fill-rule="evenodd" clip-rule="evenodd" d="M25.5417 14.1667V4.25001C25.5417 2.15584 23.8442 0.458344 21.75 0.458344C17.2677 0.458344 8.73237 0.458344 4.25004 0.458344C2.15587 0.458344 0.458374 2.15584 0.458374 4.25001V21.75C0.458374 23.8442 2.15587 25.5417 4.25004 25.5417H13C13.483 25.5417 13.875 25.1497 13.875 24.6667C13.875 24.1837 13.483 23.7917 13 23.7917H4.25004C3.12187 23.7917 2.20837 22.8782 2.20837 21.75V4.25001C2.20837 3.12184 3.12187 2.20834 4.25004 2.20834H21.75C22.8782 2.20834 23.7917 3.12184 23.7917 4.25001V14.1667C23.7917 14.6497 24.1837 15.0417 24.6667 15.0417C25.1497 15.0417 25.5417 14.6497 25.5417 14.1667Z" fill="white"/>
<path id="Vector_5" fill-rule="evenodd" clip-rule="evenodd" d="M24.6667 7.45834H1.33337C0.850374 7.45834 0.458374 7.85034 0.458374 8.33334C0.458374 8.81634 0.850374 9.20834 1.33337 9.20834H24.6667C25.1497 9.20834 25.5417 8.81634 25.5417 8.33334C25.5417 7.85034 25.1497 7.45834 24.6667 7.45834Z" fill="white"/>
<path id="Vector_6" fill-rule="evenodd" clip-rule="evenodd" d="M24.0332 24.165L21.582 20.665C21.3055 20.2695 20.7595 20.1727 20.364 20.4503C19.9685 20.7268 19.8717 21.2728 20.1493 21.6683L22.5993 25.1683C22.877 25.5638 23.423 25.6607 23.8185 25.383C24.214 25.1065 24.3108 24.5605 24.0332 24.165Z" fill="white"/>
<path id="Vector_7" fill-rule="evenodd" clip-rule="evenodd" d="M24.7449 17.7647C22.7522 16.6143 19.1437 14.533 17.1965 13.4095C16.6599 13.1003 15.9937 13.1295 15.4862 13.4842C14.9799 13.8388 14.7244 14.456 14.8317 15.065C15.2214 17.2793 15.9435 21.3825 16.3425 23.6482C16.451 24.27 16.9189 24.7693 17.5325 24.9187C18.1462 25.0692 18.7902 24.8428 19.1752 24.3412L21.2215 21.6742L24.4275 20.6638C25.0307 20.4737 25.4635 19.9452 25.5324 19.3175C25.6012 18.6898 25.292 18.0797 24.7449 17.7647ZM23.5607 19.1017L20.4317 20.0887C20.2602 20.1423 20.1097 20.2473 20.0012 20.3897L18.0039 22.9937L16.6132 15.093L23.5607 19.1017Z" fill="white"/>
</g>
</svg>
