<svg width="28" height="28" viewBox="0 0 28 28" fill="none" xmlns="http://www.w3.org/2000/svg">
<path d="M19.5641 20.7926C19.9265 20.7926 20.2203 20.4988 20.2203 20.1364C20.2203 19.7739 19.9265 19.4801 19.5641 19.4801C19.2017 19.4801 18.9078 19.7739 18.9078 20.1364C18.9078 20.4988 19.2017 20.7926 19.5641 20.7926Z" fill="white"/>
<path d="M19.5641 13.9886C19.9265 13.9886 20.2203 13.6948 20.2203 13.3324C20.2203 12.9699 19.9265 12.6761 19.5641 12.6761C19.2017 12.6761 18.9078 12.9699 18.9078 13.3324C18.9078 13.6948 19.2017 13.9886 19.5641 13.9886Z" fill="white"/>
<path d="M21.7551 20.7926C22.1176 20.7926 22.4114 20.4988 22.4114 20.1364C22.4114 19.7739 22.1176 19.4801 21.7551 19.4801C21.3927 19.4801 21.0989 19.7739 21.0989 20.1364C21.0989 20.4988 21.3927 20.7926 21.7551 20.7926Z" fill="white"/>
<path d="M19.7278 10.2751H16.6661C16.3037 10.2751 16.0099 10.5689 16.0099 10.9314C16.0099 11.2938 16.3037 11.5876 16.6661 11.5876H19.7278C20.0902 11.5876 20.384 11.2938 20.384 10.9314C20.384 10.5689 20.0902 10.2751 19.7278 10.2751Z" fill="white"/>
<path d="M9.41856 22.1672C8.12268 22.5977 6.80056 21.9467 6.27731 20.8889C6.05156 20.433 6.37268 19.8957 6.88193 19.8949H7.01931C7.28443 19.8949 7.49443 20.076 7.59768 20.3201C7.76393 20.713 8.15331 20.9895 8.60568 20.9895C9.20856 20.9895 9.69943 20.4986 9.69943 19.8957C9.69943 19.3174 9.24881 18.8431 8.68093 18.8046C7.60818 18.732 6.60193 18.1414 6.30268 17.108C5.83106 15.4787 7.04731 13.9895 8.60481 13.9895C9.63643 13.9895 10.5596 14.6422 10.9192 15.5549C11.0784 15.9582 10.7626 16.3957 10.3286 16.3949H10.1912C9.92606 16.3949 9.71693 16.2129 9.61368 15.9696C9.44743 15.5776 9.05893 15.302 8.60656 15.302C8.00368 15.302 7.51281 15.7929 7.51281 16.3949C7.51281 16.9969 8.00368 17.4895 8.60656 17.4895C10.1719 17.4895 11.3917 18.991 10.9034 20.629C10.6908 21.3421 10.1264 21.9327 9.42031 22.1672H9.41856Z" fill="white"/>
<path d="M7.94946 14.6449V13.6202C7.94859 13.258 8.24171 12.964 8.60484 12.9631C8.96709 12.9631 9.26109 13.2562 9.26109 13.6185V14.6431H7.94946V14.6449Z" fill="white"/>
<path d="M8.60486 23.3949C8.24261 23.3949 7.94861 23.1009 7.94861 22.7386V21.6449H9.26111V22.7386C9.26111 23.1009 8.96711 23.3949 8.60486 23.3949Z" fill="white"/>
<path d="M8.61526 26.9054C8.28976 26.9054 7.96076 26.8844 7.63088 26.8397C4.25863 26.3909 1.66951 23.4972 1.47176 19.9587L1.13313 13.8714C1.09551 13.1889 1.52776 12.5816 2.21026 12.362C2.84026 12.159 3.33726 11.6384 3.50613 11.004C3.69076 10.3093 4.27613 9.84287 4.96126 9.84287H12.2474C12.9325 9.84287 13.517 10.3093 13.7025 11.004C13.8714 11.6384 14.3684 12.1581 14.9993 12.362C15.6791 12.5816 16.1123 13.1871 16.0755 13.8696L15.7255 20.1705C15.6153 22.148 14.6764 24.0065 13.1495 25.27C11.8554 26.341 10.2743 26.9054 8.61526 26.9054ZM4.96213 11.1554C4.86151 11.1554 4.79851 11.256 4.77576 11.3426C4.48876 12.4189 3.68113 13.2676 2.61451 13.6115C2.54888 13.6325 2.43951 13.6955 2.44563 13.7979L2.78426 19.8853C2.94613 22.7955 5.05751 25.1737 7.80588 25.5395C9.45001 25.7582 11.0504 25.3033 12.313 24.2585C13.559 23.2278 14.3255 21.7114 14.4148 20.097L14.7648 13.7979C14.77 13.7025 14.6773 13.6377 14.5959 13.6115C13.5293 13.2676 12.7208 12.4198 12.4338 11.3426C12.411 11.256 12.348 11.1554 12.2474 11.1554H4.96213Z" fill="white"/>
<path d="M20.1215 18.1562L17.7196 18.1545C17.3574 18.1545 17.0634 17.8596 17.0643 17.4974C17.0643 17.1351 17.3591 16.842 17.7214 16.842L20.1233 16.8438C21.2074 16.8446 22.0938 15.9591 22.0938 14.875V4.375C22.0938 3.28737 21.2126 2.40625 20.125 2.40625H4.37415C3.28652 2.40625 2.4054 3.28737 2.4054 4.375V10.0642C2.4054 10.4265 2.1114 10.7205 1.74915 10.7205C1.3869 10.7205 1.0929 10.4265 1.0929 10.0642V4.375C1.0929 2.56287 2.56202 1.09375 4.37415 1.09375H20.1241C21.9363 1.09375 23.4054 2.56287 23.4054 4.375V14.875C23.4054 16.681 21.9275 18.158 20.1215 18.1562Z" fill="white"/>
<path d="M23.6241 23.4062H17.2804C16.9181 23.4062 16.6241 23.1122 16.6241 22.75C16.6241 22.3878 16.9181 22.0938 17.2804 22.0938H23.6241C24.7118 22.0938 25.5929 21.2126 25.5929 20.125V9.625C25.5929 8.53737 24.7118 7.65625 23.6241 7.65625H22.7491V6.34375H23.6241C25.4363 6.34375 26.9054 7.81287 26.9054 9.625V20.125C26.9054 21.9371 25.4363 23.4062 23.6241 23.4062Z" fill="white"/>
<path d="M1.76758 5.46963H22.7291V6.78213H1.76758V5.46963Z" fill="white"/>
<path d="M22.729 11.0985H26.2491V12.411H22.729V11.0985Z" fill="white"/>
</svg>
