<svg width="22" height="27" viewBox="0 0 22 27" fill="none" xmlns="http://www.w3.org/2000/svg">
<g id="Layer 2">
<path id="Vector" d="M16.25 13.875H5.75C5.51794 13.875 5.29538 13.7828 5.13128 13.6187C4.96719 13.4546 4.875 13.2321 4.875 13C4.875 12.7679 4.96719 12.5454 5.13128 12.3813C5.29538 12.2172 5.51794 12.125 5.75 12.125H16.25C16.4821 12.125 16.7046 12.2172 16.8687 12.3813C17.0328 12.5454 17.125 12.7679 17.125 13C17.125 13.2321 17.0328 13.4546 16.8687 13.6187C16.7046 13.7828 16.4821 13.875 16.25 13.875Z" fill="white"/>
<path id="Vector_2" d="M16.25 18.5417H5.75C5.51794 18.5417 5.29538 18.4495 5.13128 18.2854C4.96719 18.1213 4.875 17.8987 4.875 17.6667C4.875 17.4346 4.96719 17.212 5.13128 17.0479C5.29538 16.8839 5.51794 16.7917 5.75 16.7917H16.25C16.4821 16.7917 16.7046 16.8839 16.8687 17.0479C17.0328 17.212 17.125 17.4346 17.125 17.6667C17.125 17.8987 17.0328 18.1213 16.8687 18.2854C16.7046 18.4495 16.4821 18.5417 16.25 18.5417Z" fill="white"/>
<path id="Vector_3" d="M13.3333 9.20833H5.75C5.51794 9.20833 5.29538 9.11614 5.13128 8.95205C4.96719 8.78796 4.875 8.5654 4.875 8.33333C4.875 8.10127 4.96719 7.87871 5.13128 7.71461C5.29538 7.55052 5.51794 7.45833 5.75 7.45833H13.3333C13.5654 7.45833 13.788 7.55052 13.9521 7.71461C14.1161 7.87871 14.2083 8.10127 14.2083 8.33333C14.2083 8.5654 14.1161 8.78796 13.9521 8.95205C13.788 9.11614 13.5654 9.20833 13.3333 9.20833Z" fill="white"/>
<path id="Vector_4" d="M11 26.1367C10.0051 26.1586 9.02108 25.9257 8.14162 25.46C7.50153 25.1006 6.77533 24.9231 6.04162 24.9467C5.30772 24.9213 4.58105 25.0989 3.94162 25.46C3.56671 25.6422 3.17627 25.7906 2.77495 25.9033C2.47178 25.9956 2.15114 26.0151 1.83901 25.9604C1.52687 25.9057 1.23201 25.7782 0.978288 25.5883C0.724484 25.3957 0.518691 25.147 0.377013 24.8616C0.235335 24.5762 0.161615 24.2619 0.161621 23.9433V2.65167C0.161615 2.33305 0.235335 2.01876 0.377013 1.73338C0.518691 1.448 0.724484 1.19927 0.978288 1.00667C1.23865 0.807456 1.54363 0.674667 1.86684 0.619783C2.19004 0.564898 2.52176 0.589571 2.83329 0.691665C3.2346 0.804411 3.62504 0.952778 3.99995 1.135C4.63938 1.4961 5.36605 1.67373 6.09995 1.64833C6.83367 1.67193 7.55986 1.49441 8.19995 1.135C9.06205 0.678918 10.0247 0.446269 11 0.458332C11.9949 0.436386 12.9788 0.669326 13.8583 1.135C14.497 1.49781 15.2242 1.67557 15.9583 1.64833C16.692 1.67193 17.4182 1.49441 18.0583 1.135C18.435 0.953696 18.825 0.801582 19.225 0.679999C19.5302 0.590968 19.852 0.574455 20.1647 0.631774C20.4775 0.689093 20.7725 0.818662 21.0263 1.01015C21.2801 1.20165 21.4857 1.44977 21.6267 1.73476C21.7676 2.01975 21.8401 2.33372 21.8383 2.65167V23.9433C21.843 24.2679 21.7703 24.589 21.6261 24.8799C21.4819 25.1707 21.2704 25.423 21.0092 25.6158C20.748 25.8086 20.4445 25.9363 20.1241 25.9883C19.8036 26.0403 19.4754 26.0152 19.1666 25.915C18.7667 25.7934 18.3766 25.6413 18 25.46C17.3599 25.1006 16.6337 24.9231 15.9 24.9467C15.1659 24.9194 14.4387 25.0972 13.8 25.46C12.9379 25.9161 11.9752 26.1487 11 26.1367ZM6.04162 23.1967C7.03652 23.1747 8.02049 23.4077 8.89995 23.8733C9.5387 24.2361 10.2659 24.4139 11 24.3867C11.7337 24.4103 12.4599 24.2327 13.1 23.8733C13.9794 23.4077 14.9634 23.1747 15.9583 23.1967C16.9532 23.1747 17.9372 23.4077 18.8166 23.8733C19.0908 24.0156 19.3755 24.1365 19.6683 24.235C19.7126 24.2471 19.7591 24.248 19.8039 24.2379C19.8487 24.2277 19.8902 24.2067 19.925 24.1767C19.9626 24.1509 19.9931 24.116 20.0136 24.0751C20.034 24.0343 20.0436 23.9889 20.0416 23.9433V2.65167C20.0436 2.60606 20.034 2.5607 20.0136 2.51987C19.9931 2.47904 19.9626 2.44409 19.925 2.41833C19.8902 2.38832 19.8487 2.3673 19.8039 2.35713C19.7591 2.34695 19.7126 2.34794 19.6683 2.36C19.3755 2.45853 19.0908 2.57944 18.8166 2.72167C17.9372 3.18734 16.9532 3.42028 15.9583 3.39833C14.9634 3.42028 13.9794 3.18734 13.1 2.72167C12.4599 2.36225 11.7337 2.18474 11 2.20833C10.2659 2.1811 9.5387 2.35885 8.89995 2.72167C8.02049 3.18734 7.03652 3.42028 6.04162 3.39833C5.04672 3.42028 4.06275 3.18734 3.18329 2.72167C2.9091 2.57944 2.62437 2.45853 2.33162 2.36C2.28733 2.34794 2.24076 2.34695 2.19601 2.35713C2.15125 2.3673 2.10968 2.38832 2.07495 2.41833C2.03727 2.44409 2.00677 2.47904 1.98636 2.51987C1.96594 2.5607 1.95628 2.60606 1.95829 2.65167V23.9433C1.95628 23.9889 1.96594 24.0343 1.98636 24.0751C2.00677 24.116 2.03727 24.1509 2.07495 24.1767C2.11135 24.2037 2.15297 24.2228 2.19715 24.2328C2.24134 24.2429 2.28713 24.2436 2.33162 24.235C2.62437 24.1365 2.9091 24.0156 3.18329 23.8733C4.06275 23.4077 5.04672 23.1747 6.04162 23.1967Z" fill="white"/>
</g>
</svg>
