<svg width="24" height="24" viewBox="0 0 24 24" fill="none" xmlns="http://www.w3.org/2000/svg">
<g id="fi_1155628">
<path id="Vector" d="M5.01868 13.4438V12.9438H4.51868H0.703125C0.590901 12.9438 0.5 12.8529 0.5 12.7407V3.70312C0.5 3.5909 0.590901 3.5 0.703125 3.5H9.74066C9.85289 3.5 9.94379 3.5909 9.94379 3.70312V12.7407C9.94379 12.7622 9.94029 12.7836 9.93343 12.8041L9.93319 12.8048L7.67385 19.583L7.67379 19.5832C7.64621 19.6661 7.56869 19.722 7.48132 19.722H5.2218C5.10966 19.722 5.01868 19.631 5.01868 19.5189V13.4438Z" stroke="#3B9768"/>
<path id="Vector_2" d="M18.575 13.4438V12.9438H18.075H14.2593C14.1471 12.9438 14.0562 12.8529 14.0562 12.7407V3.70312C14.0562 3.5909 14.1471 3.5 14.2593 3.5H23.2968C23.409 3.5 23.4999 3.5909 23.4999 3.70312V12.7407C23.4999 12.7621 23.4965 12.7838 23.4895 12.8048C23.4895 12.805 23.4894 12.8051 23.4894 12.8052L21.2302 19.5829C21.2025 19.6661 21.1248 19.722 21.0375 19.722H18.7781C18.666 19.722 18.575 19.631 18.575 19.5189V13.4438Z" stroke="#3B9768"/>
</g>
</svg>
