<svg width="24" height="24" viewBox="0 0 24 24" fill="none" xmlns="http://www.w3.org/2000/svg">
<g id="fi_1155628" clip-path="url(#clip0_2259_3112)">
<path id="Vector" d="M9.74066 3.375H0.703125C0.314758 3.375 0 3.68976 0 4.07812V13.1157C0 13.504 0.314758 13.8188 0.703125 13.8188H4.51868V19.8939C4.51868 20.282 4.83344 20.597 5.2218 20.597H7.48132C7.784 20.597 8.05261 20.4033 8.14819 20.1161L10.4075 13.338C10.4315 13.2664 10.4438 13.1913 10.4438 13.1157V4.07812C10.4438 3.68976 10.129 3.375 9.74066 3.375Z" fill="#3B9768"/>
<path id="Vector_2" d="M23.2969 3.375H14.2594C13.871 3.375 13.5563 3.68976 13.5563 4.07812V13.1157C13.5563 13.504 13.871 13.8188 14.2594 13.8188H18.0751V19.8939C18.0751 20.282 18.3899 20.597 18.7783 20.597H21.0376C21.3403 20.597 21.6089 20.4033 21.7047 20.1161L23.964 13.338C23.9878 13.2664 24.0001 13.1913 24.0001 13.1157V4.07812C24.0001 3.68976 23.6853 3.375 23.2969 3.375Z" fill="#3B9768"/>
</g>
<defs>
<clipPath id="clip0_2259_3112">
<rect width="24" height="24" fill="white"/>
</clipPath>
</defs>
</svg>
