<svg width="28" height="28" viewBox="0 0 28 28" fill="none" xmlns="http://www.w3.org/2000/svg">
<g id="008-magnifying-glass" clip-path="url(#clip0_2259_3221)">
<path id="Vector" d="M19.2013 17.6818C19.921 16.6532 20.3438 15.4024 20.3438 14.0547C20.3438 10.5568 17.4979 7.71094 14 7.71094C10.5021 7.71094 7.65625 10.5568 7.65625 14.0547C7.65625 17.5528 10.5021 20.3984 14 20.3984C15.3618 20.3984 16.6248 19.9669 17.6596 19.2338L21.799 23.3731C22.0124 23.5865 22.2924 23.6934 22.5723 23.6934C22.8521 23.6934 23.1322 23.5865 23.3456 23.3731C23.7728 22.9459 23.7728 22.2533 23.3456 21.8263L19.2013 17.6818ZM9.84375 14.0547C9.84375 11.7629 11.7083 9.89844 14 9.89844C16.2917 9.89844 18.1562 11.7629 18.1562 14.0547C18.1562 16.3464 16.2917 18.2109 14 18.2109C11.7083 18.2109 9.84375 16.3464 9.84375 14.0547ZM28 13.4531V14.5469C28 16.3563 26.5281 17.8281 24.7188 17.8281H24.1678C24.0789 17.8281 24.0112 17.8617 23.9702 17.8899C23.472 18.2317 22.7912 18.1048 22.4496 17.6064C22.1078 17.1084 22.2347 16.4274 22.7329 16.0858C23.1578 15.7946 23.6538 15.6406 24.1678 15.6406H24.7188C25.3218 15.6406 25.8125 15.1499 25.8125 14.5469V13.4531C25.8125 12.8501 25.3218 12.3594 24.7188 12.3594H24.1678C23.1339 12.3594 22.2091 11.7371 21.8113 10.7743L21.8047 10.7583C21.405 9.79568 21.6189 8.70129 22.3499 7.97028L22.7395 7.58084C23.1659 7.15424 23.1659 6.46039 22.7395 6.034L21.966 5.26068C21.7594 5.05411 21.4847 4.94025 21.1927 4.94025C20.9005 4.94025 20.6257 5.05389 20.4194 5.26068L20.0297 5.65012C19.2987 6.38113 18.2043 6.59518 17.2417 6.19507L17.2255 6.18845C16.2629 5.79089 15.6406 4.86612 15.6406 3.83218V3.28125C15.6406 2.67819 15.1499 2.1875 14.5469 2.1875H13.4531C12.8501 2.1875 12.3594 2.67819 12.3594 3.28125V3.83218C12.3594 4.86612 11.7371 5.79089 10.7743 6.18845L10.7604 6.19421C9.79547 6.59497 8.70129 6.38113 7.97028 5.65012L7.58063 5.26047C7.37427 5.05389 7.09955 4.94025 6.80731 4.94025C6.51529 4.94025 6.24057 5.05389 6.034 5.26047L5.26047 6.034C4.83408 6.46039 4.83408 7.15424 5.26047 7.58084L5.65012 7.97028C6.38113 8.70129 6.59497 9.79568 6.19507 10.7585L6.18845 10.7747C5.79089 11.7371 4.86612 12.3594 3.83218 12.3594H3.28125C2.67819 12.3594 2.1875 12.8501 2.1875 13.4531V14.5469C2.1875 15.1499 2.67819 15.6406 3.28125 15.6406H3.83218C4.86591 15.6406 5.79089 16.2629 6.18845 17.2257L6.19656 17.2449C6.59497 18.2043 6.38113 19.2987 5.65012 20.0297L5.26047 20.4192C5.05389 20.6257 4.94025 20.9005 4.94025 21.1927C4.94025 21.4847 5.05389 21.7594 5.26047 21.966L6.034 22.7395C6.46039 23.1659 7.15424 23.1661 7.58084 22.7395L7.97028 22.3499C8.70087 21.6195 9.7944 21.4052 10.7568 21.8043L10.7709 21.8101C11.7373 22.2091 12.3594 23.1341 12.3594 24.1678V24.7188C12.3594 25.3218 12.8501 25.8125 13.4531 25.8125H14.5469C15.1499 25.8125 15.6406 25.3218 15.6406 24.7188V24.1678C15.6406 23.6538 15.7946 23.1576 16.086 22.7329C16.4276 22.2347 17.1084 22.1078 17.6066 22.4496C18.1048 22.7912 18.2317 23.472 17.8899 23.9702C17.8617 24.0112 17.8281 24.0789 17.8281 24.1678V24.7188C17.8281 26.5281 16.3563 28 14.5469 28H13.4531C11.6437 28 10.1719 26.5281 10.1719 24.7188V24.1678C10.1719 24.023 10.0807 23.8916 9.93924 23.8333L9.91937 23.825C9.77731 23.766 9.61945 23.7942 9.51712 23.8967L9.12747 24.2864C7.8483 25.5656 5.76654 25.5656 4.48715 24.2864L3.71362 23.5128C3.0939 22.8931 2.75275 22.0692 2.75275 21.1927C2.75275 20.3162 3.0939 19.4922 3.71384 18.8725L4.10327 18.4829C4.2056 18.3806 4.2338 18.2227 4.17505 18.0808L4.16608 18.0595C4.1084 17.9193 3.97702 17.8281 3.83218 17.8281H3.28125C1.47186 17.8281 0 16.3563 0 14.5469V13.4531C0 11.6437 1.47186 10.1719 3.28125 10.1719H3.83218C3.97702 10.1719 4.1084 10.0807 4.16672 9.93945L4.17484 9.91959C4.23401 9.77753 4.20581 9.61966 4.10327 9.51712L3.71384 9.12769C2.43445 7.8483 2.43445 5.76654 3.71384 4.48715L4.48715 3.71384C5.10709 3.09412 5.93103 2.75275 6.80731 2.75275C7.68381 2.75275 8.50775 3.09412 9.12769 3.71384L9.51712 4.10327C9.61966 4.20581 9.77753 4.23401 9.91937 4.17505L9.93903 4.16672C10.0807 4.1084 10.1719 3.97702 10.1719 3.83218V3.28125C10.1719 1.47186 11.644 0 13.4531 0H14.5469C16.3563 0 17.8281 1.47186 17.8281 3.28125V3.83218C17.8281 3.97702 17.9193 4.1084 18.0605 4.16672L18.0828 4.1759C18.2227 4.23401 18.3806 4.20581 18.4829 4.10327L18.8725 3.71384C19.4922 3.0939 20.3162 2.75275 21.1927 2.75275C22.069 2.75275 22.8931 3.0939 23.5128 3.71384L24.2862 4.48715C25.5656 5.76654 25.5656 7.8483 24.2862 9.12747L23.8967 9.51712C23.7942 9.61945 23.766 9.77731 23.825 9.91937L23.8331 9.93903C23.8916 10.0804 24.023 10.1719 24.1678 10.1719H24.7188C26.5281 10.1719 28 11.6437 28 13.4531Z" fill="white"/>
</g>
<defs>
<clipPath id="clip0_2259_3221">
<rect width="28" height="28" fill="white"/>
</clipPath>
</defs>
</svg>
