<svg width="28" height="28" viewBox="0 0 28 28" fill="none" xmlns="http://www.w3.org/2000/svg">
<g id="fi_10597646">
<path id="Vector" fill-rule="evenodd" clip-rule="evenodd" d="M14.4612 4.57602C14.1618 4.47623 13.8382 4.47623 13.5388 4.57602L6.26698 6.99994L14 9.57764L21.733 6.99994L14.4612 4.57602ZM23.625 8.21398L14.875 11.1306V23.286L22.6278 20.7017C23.2233 20.5032 23.625 19.9459 23.625 19.3182V8.21398ZM13.125 23.286V11.1306L4.375 8.21398V19.3182C4.375 19.9459 4.77667 20.5032 5.37217 20.7017L13.125 23.286ZM12.9854 2.91582C13.644 2.6963 14.356 2.6963 15.0146 2.91582L24.7767 6.16986C25.134 6.28898 25.375 6.62334 25.375 6.99994V19.3182C25.375 20.6992 24.4913 21.9252 23.1813 22.3619L14.2767 25.3301C14.0971 25.3899 13.9029 25.3899 13.7233 25.3301L4.81877 22.3619C3.50867 21.9252 2.625 20.6992 2.625 19.3182V6.99994C2.625 6.62334 2.866 6.28898 3.2233 6.16986L12.9854 2.91582Z" fill="white"/>
</g>
</svg>
