<?xml version="1.0" encoding="UTF-8" standalone="no"?>
<!-- Generator: Adobe Illustrator 19.2.1, SVG Export Plug-In . SVG Version: 6.00 Build 0)  -->
<svg id="Layer_1" style="enable-background:new 0 0 414.1 99" xmlns="http://www.w3.org/2000/svg" xml:space="preserve" viewBox="0 0 414.1 99" version="1.1" y="0px" x="0px" xmlns:xlink="http://www.w3.org/1999/xlink">
<style type="text/css">
	.st0{fill-rule:evenodd;clip-rule:evenodd;fill:#3B9768;}
	.st1{fill-rule:evenodd;clip-rule:evenodd;fill:#3C434A;}
</style>
<path class="st0" d="m395.4 48.4c0 2.1 0.4 3.9 1.1 5.4s1.8 2.6 3.2 3.4 3.1 1.2 5.1 1.2 3.7-0.4 5.1-1.2 2.4-1.9 3.2-3.4c0.7-1.5 1.1-3.3 1.1-5.4v-20.5c0-2.1-0.4-3.9-1.1-5.4s-1.8-2.6-3.2-3.4-3.1-1.2-5.1-1.2-3.7 0.4-5.1 1.2-2.4 1.9-3.2 3.4c-0.7 1.5-1.1 3.3-1.1 5.4v20.5zm6.2-20.9c0-1.4 0.3-2.4 0.9-3s1.3-0.9 2.3-0.9 1.8 0.3 2.3 0.9c0.6 0.6 0.9 1.6 0.9 3v21.2c0 1.4-0.3 2.4-0.9 3s-1.3 0.9-2.3 0.9-1.8-0.3-2.3-0.9c-0.6-0.6-0.9-1.6-0.9-3v-21.2zm-16.5 30.3h5.8v-37.1l-5.8 5v32.1zm-80.5-29.5c0 1.6 0.2 3 0.7 4.2 0.4 1.2 1 2.3 1.7 3.3s1.5 1.9 2.4 2.7 1.7 1.6 2.6 2.4 1.6 1.5 2.4 2.3c0.7 0.8 1.3 1.6 1.7 2.6 0.4 0.9 0.7 1.9 0.7 3.1 0 0.9-0.1 1.7-0.4 2.2-0.3 0.6-0.6 1-1.1 1.2-0.5 0.3-1 0.4-1.7 0.4s-1.2-0.1-1.7-0.4-0.8-0.6-1.1-1.2-0.4-1.3-0.4-2.2v-2.8h-5.8v2.4c0 2.1 0.3 3.8 1 5.3s1.7 2.6 3.1 3.3c1.4 0.8 3.1 1.1 5.1 1.1s3.7-0.4 5.1-1.1c1.4-0.8 2.4-1.9 3.1-3.3 0.7-1.5 1-3.2 1-5.3 0-1.6-0.2-3-0.7-4.2-0.4-1.2-1-2.3-1.7-3.3s-1.5-1.9-2.4-2.7-1.7-1.6-2.6-2.4-1.6-1.5-2.4-2.3c-0.7-0.8-1.3-1.6-1.7-2.6-0.4-0.9-0.7-1.9-0.7-3.1 0-1.4 0.3-2.4 0.8-3 0.4-0.4 0.8-0.7 1.4-0.8h6.9 6.5v33.7h6.2v-33.7h6.8v24.3c0 2.1 0.3 3.9 1 5.4s1.7 2.6 3.1 3.4 3.1 1.2 5.1 1.2 3.7-0.4 5.1-1.2 2.4-1.9 3.1-3.4 1-3.3 1-5.4v-24.3h14.3c0.7 0 1.2 0.1 1.7 0.4s0.8 0.7 1.1 1.2c0.2 0.6 0.4 1.3 0.4 2.2v20.5c0 0.9-0.1 1.7-0.4 2.2-0.3 0.6-0.6 1-1.1 1.2-0.5 0.3-1 0.4-1.7 0.4h-3.5v-23.9h-6.2v29.5h9.8c3.1 0 5.4-0.8 6.9-2.5s2.3-4.1 2.3-7.2v-19.9c0-3.2-0.8-5.6-2.3-7.2-1.5-1.7-3.8-2.5-6.9-2.5h-20.4v30.3c0 0.9-0.1 1.7-0.4 2.2-0.3 0.6-0.6 1-1.1 1.2-0.5 0.3-1 0.4-1.7 0.4s-1.2-0.1-1.7-0.4-0.8-0.7-1.1-1.2c-0.3-0.6-0.4-1.3-0.4-2.2v-30.3h-25.6-6-0.1-0.1-0.9c-1.6 0.1-2.9 0.5-4 1.1-1.3 0.8-2.4 1.9-3.1 3.3-0.6 1.5-1 3.3-1 5.4z"/>
<path class="st1" d="m26.8 24.1c0.7 0 1.2 0.1 1.7 0.3s0.8 0.6 1 1.2c0.2 0.5 0.3 1.3 0.3 2.2v5.9c0 0.9-0.1 1.7-0.3 2.2s-0.6 0.9-1 1.2c-0.4 0.2-1 0.3-1.7 0.3h-2.9v-13.3h2.9zm0-5.6h-9.1v39.3h6.2v-14.7h2.9c3.1 0 5.4-0.8 6.9-2.5s2.3-4.1 2.3-7.2v-5.1c0-3.2-0.8-5.6-2.3-7.2-1.5-1.7-3.8-2.6-6.9-2.6zm25.5 7l3 19.9h-6l3-19.9zm4.8-7h-9l-6.3 39.3h5.7l1.1-7.1h7.6l1.1 7.1h6.2l-6.4-39.3zm20.4 5.6c1.1 0 1.9 0.3 2.4 1s0.8 1.7 0.7 3.1v3.9c0 1-0.1 1.9-0.4 2.5s-0.7 1-1.3 1.3-1.2 0.4-2 0.4h-2.4v-12.2h3zm10.1 33.8c-0.3-0.7-0.5-1.5-0.6-2.2-0.1-0.8-0.1-1.6-0.1-2.6v-6.1c0-1.4-0.1-2.6-0.4-3.7s-0.7-2-1.3-2.8-1.4-1.4-2.4-1.8c1.4-0.6 2.4-1.6 3.1-3 0.7-1.3 1-3 1-5v-3.1c0-2-0.3-3.7-1-5-0.6-1.3-1.6-2.3-3-3s-3.1-1-5.2-1h-9.3v39.3h6.2v-16h2.1c0.9 0 1.7 0.2 2.3 0.5s1 0.9 1.3 1.6 0.4 1.7 0.4 2.9v6.1 2c0 0.5 0.1 0.9 0.1 1.3 0 0.3 0.1 0.6 0.2 0.9 0.1 0.2 0.1 0.5 0.2 0.7h6.4zm2.1-33.8h6.5v33.7h6.2v-33.7h6.5v-5.6h-19.2v5.6zm29.7 33.8h6.2v-13l7.8-26.3h-5.9l-4.7 17.9-4.7-17.9h-6.5l7.8 26.3v13zm34.9-33.8c1.1 0 1.9 0.3 2.4 1s0.8 1.7 0.7 3.1v3.9c0 1-0.2 1.9-0.5 2.5s-0.7 1-1.3 1.3-1.2 0.4-2 0.4h-2.4v-12.2h3.1zm10.1 33.8c-0.3-0.7-0.5-1.5-0.6-2.2-0.1-0.8-0.1-1.6-0.1-2.6v-6.1c0-1.4-0.1-2.6-0.4-3.7s-0.7-2-1.3-2.8-1.4-1.4-2.4-1.8c1.4-0.6 2.4-1.6 3.1-3 0.7-1.3 1-3 1-5v-3.1c0-2-0.3-3.7-1-5-0.6-1.3-1.6-2.3-3-3s-3.1-1-5.2-1h-9.3v39.3h6.2v-16h2.1c0.9 0 1.7 0.2 2.3 0.5s1 0.9 1.3 1.6 0.4 1.7 0.4 2.9v6.1 2c0 0.5 0.1 0.9 0.1 1.3 0 0.3 0.1 0.6 0.2 0.9 0.1 0.2 0.1 0.5 0.2 0.7h6.4zm10.1-33.8h10.7v-5.6h-16.9v39.3h16.9v-5.6h-10.7v-11.5h8.5v-5.6h-8.5v-11zm28.2 33.8h6.4v-39.4h-5.5v23.6l-6.4-23.6h-7.8v39.3h5.6v-28.4l7.7 28.5zm9.6-33.8h6.5v33.7h6.2v-33.7h6.5v-5.6h-19.1v5.6zm29.1 1.4l3 19.9h-6l3-19.9zm4.8-7h-9l-6.3 39.3h5.7l1.1-7.1h7.6l1.1 7.1h6.2l-6.4-39.3zm9.7 39.4h16.4v-5.6h-10.2v-33.8h-6.2v39.4zm28.4-57.9h3.1v81.7h-3.1v-81.7zm100.8 23.7l5.8-5.2h-5.8v5.2zm-364.4-14.6c31.7 0 21.9 47.2 3.4 53.4-0.7 0.2-1.8 0.2-1.2 1.1 0.3 0.5 0.8 0.4 0.8 1 0 0.5-1 0.8-2.4 0.9h-0.4l-0.1 0.2c-1.9 3.2-3.7 6.3-0.9 10.5 1.1 1.6 2.4 3 3.7 4.3 3.1 3.2 6 6.2 4.8 10.8-0.4 1.6-1.4 3.1-2.7 4.6-1 1.1-2.1 2.1-3.2 3.1l-0.7-0.6c1-0.9 1.9-1.8 2.8-2.8 1.2-1.4 2.2-2.9 2.6-4.4 1.2-4.4-1.6-7.3-4.6-10.4-1.3-1.4-2.7-2.8-3.8-4.4-3-4.4-1.1-7.6 0.9-11h-0.3c-1-0.1-1.8-0.5-1.8-0.9s0.3-0.5 0.6-0.7c1.2-1-0.7-1-1.4-1.2-18.4-5.8-27.6-53.5 3.9-53.5z"/>
</svg>
