<?xml version="1.0" encoding="utf-8"?>
<!-- Generator: Adobe Illustrator 19.2.1, SVG Export Plug-In . SVG Version: 6.00 Build 0)  -->
<svg version="1.1" id="Layer_1" xmlns="http://www.w3.org/2000/svg" xmlns:xlink="http://www.w3.org/1999/xlink" x="0px" y="0px"
	 viewBox="0 0 33.4 29.3" style="enable-background:new 0 0 33.4 29.3;" xml:space="preserve">
<style type="text/css">
	.st0{fill:#3B9768;}
</style>
<g>
	<path class="st0" d="M13.2,18.1l1.2,1.5c-0.3,0.5-0.9,1.2-1.7,2.1c-1.2,1.5-2.3,3-3.4,4.5c-1.7-0.5-3.2-1.4-4.2-2.8
		c-1.1-1.4-1.6-3-1.6-4.7c0-2.2,0.7-4.5,2.2-7.1C7.1,9,9.4,6.4,12.4,3.7l2,2.1c-2.1,2.8-3.5,4.9-4.1,6.3c-0.5,0.9-0.7,2-0.7,3
		s0.3,1.8,0.8,2.3c0.5,0.6,1.1,0.9,1.8,0.9C12.4,18.3,12.7,18.2,13.2,18.1z M28.2,18.1l1.2,1.5c-0.3,0.5-0.9,1.2-1.7,2.1
		c-1.2,1.5-2.3,3-3.4,4.5c-1.7-0.5-3.2-1.4-4.2-2.8c-1.1-1.4-1.6-2.9-1.6-4.7c0-2.2,0.7-4.5,2.2-7.1s3.7-5.2,6.6-7.9l2.1,2.1
		c-2.1,2.8-3.5,4.9-4.1,6.3c-0.5,0.9-0.7,2-0.7,3s0.3,1.8,0.8,2.3c0.5,0.6,1.1,0.9,1.8,0.9C27.4,18.3,27.7,18.2,28.2,18.1z"/>
</g>
</svg>
