<?xml version="1.0" encoding="utf-8"?>
<!-- Generator: Adobe Illustrator 18.1.1, SVG Export Plug-In . SVG Version: 6.00 Build 0)  -->
<!DOCTYPE svg PUBLIC "-//W3C//DTD SVG 1.1//EN" "http://www.w3.org/Graphics/SVG/1.1/DTD/svg11.dtd">
<svg version="1.1" id="Layer_1" xmlns="http://www.w3.org/2000/svg" xmlns:xlink="http://www.w3.org/1999/xlink" x="0px" y="0px"
	 viewBox="0 0 34 34" enable-background="new 0 0 34 34" xml:space="preserve">
<path fill="#F05273" d="M17,34c9.4,0,17-7.6,17-17c0-9.4-7.6-17-17-17C7.6,0,0,7.6,0,17C0,26.4,7.6,34,17,34"/>
<g>
	<path fill="none" stroke="#FFFFFF" stroke-miterlimit="10" d="M22.5,21.2c-0.1,0-0.1,0-0.2-0.1L19,17.9c-0.1-0.1-0.1-0.3,0-0.4
		c0.1-0.1,0.3-0.1,0.4,0l3.4,3.2c0.1,0.1,0.1,0.3,0,0.4C22.7,21.2,22.6,21.2,22.5,21.2L22.5,21.2z M22.5,21.2"/>
	<path fill="none" stroke="#FFFFFF" stroke-miterlimit="10" d="M11.2,21.2c-0.1,0-0.2,0-0.2-0.1c-0.1-0.1-0.1-0.3,0-0.4l3.4-3.2
		c0.1-0.1,0.3-0.1,0.4,0c0.1,0.1,0.1,0.3,0,0.4l-3.4,3.2C11.4,21.2,11.3,21.2,11.2,21.2L11.2,21.2z M11.2,21.2"/>
	<path fill="none" stroke="#FFFFFF" stroke-miterlimit="10" d="M24.5,24.2H9.2c-0.8,0-1.5-0.7-1.5-1.5v-10c0-0.8,0.7-1.5,1.5-1.5
		h15.3c0.8,0,1.5,0.7,1.5,1.5v10C26,23.5,25.4,24.2,24.5,24.2L24.5,24.2z M9.2,11.8c-0.5,0-0.9,0.4-0.9,0.9v10
		c0,0.5,0.4,0.9,0.9,0.9h15.3c0.5,0,0.9-0.4,0.9-0.9v-10c0-0.5-0.4-0.9-0.9-0.9H9.2z M9.2,11.8"/>
	<path fill="none" stroke="#FFFFFF" stroke-miterlimit="10" d="M16.9,19.1c-0.4,0-0.8-0.1-1.1-0.4l-7.6-6.6c-0.1-0.1-0.1-0.3,0-0.4
		c0.1-0.1,0.3-0.1,0.4,0l7.6,6.6c0.4,0.3,1,0.3,1.4,0l7.5-6.6c0.1-0.1,0.3-0.1,0.4,0c0.1,0.1,0.1,0.3,0,0.4L18,18.8
		C17.7,19,17.3,19.1,16.9,19.1L16.9,19.1z M16.9,19.1"/>
</g>
</svg>
