<?xml version="1.0" encoding="utf-8"?>
<!-- Generator: Adobe Illustrator 18.1.1, SVG Export Plug-In . SVG Version: 6.00 Build 0)  -->
<!DOCTYPE svg PUBLIC "-//W3C//DTD SVG 1.1//EN" "http://www.w3.org/Graphics/SVG/1.1/DTD/svg11.dtd">
<svg version="1.1" id="Layer_1" xmlns="http://www.w3.org/2000/svg" xmlns:xlink="http://www.w3.org/1999/xlink" x="0px" y="0px"
	 viewBox="0 0 34 34" enable-background="new 0 0 34 34" xml:space="preserve">
<path fill="#F7941E" d="M17,34c9.4,0,17-7.6,17-17c0-9.4-7.6-17-17-17C7.6,0,0,7.6,0,17C0,26.4,7.6,34,17,34"/>
<path id="RSS" fill="#FFFFFF" d="M12.4,21.7c0.4,0.4,0.7,1,0.7,1.6c0,0.6-0.3,1.2-0.7,1.6l0,0c-0.4,0.4-1,0.7-1.6,0.7
	c-0.6,0-1.2-0.3-1.6-0.7c-0.4-0.4-0.7-1-0.7-1.6c0-0.6,0.3-1.2,0.7-1.6v0c0.4-0.4,1-0.7,1.6-0.7C11.4,21,11.9,21.2,12.4,21.7z
	 M12.4,21.7L12.4,21.7L12.4,21.7L12.4,21.7z M9.2,24.8L9.2,24.8C9.2,24.8,9.2,24.8,9.2,24.8L9.2,24.8z M8.5,14.3v3.2
	c2.1,0,4.1,0.8,5.6,2.3c1.5,1.5,2.3,3.5,2.3,5.6l0,0v0h3.3c0-3.1-1.3-5.9-3.3-7.9C14.4,15.5,11.6,14.3,8.5,14.3z M8.5,8.5v3.2
	c7.6,0,13.7,6.2,13.7,13.8h3.3c0-4.7-1.9-8.9-5-12C17.4,10.4,13.2,8.5,8.5,8.5z"/>
</svg>
