<?xml version="1.0" standalone="no"?>
<!DOCTYPE svg PUBLIC "-//W3C//DTD SVG 20010904//EN"
 "http://www.w3.org/TR/2001/REC-SVG-20010904/DTD/svg10.dtd">
<svg version="1.0" xmlns="http://www.w3.org/2000/svg"
 width="260.000000pt" height="260.000000pt" viewBox="0 0 260.000000 260.000000"
 preserveAspectRatio="xMidYMid meet">
<metadata>
Created by potrace 1.14, written by Peter Selinger 2001-2017
</metadata>
<g transform="translate(0.000000,260.000000) scale(0.100000,-0.100000)"
fill="#000000" stroke="none">
<path d="M1218 2475 c-2 -1 -28 -5 -58 -8 -334 -35 -584 -257 -673 -597 -32
-121 -38 -177 -38 -348 0 -206 22 -339 91 -544 90 -269 245 -506 416 -636 43
-33 179 -102 201 -102 6 0 24 -5 39 -10 l27 -11 -22 -22 c-11 -13 -21 -28 -21
-35 0 -14 32 -32 59 -32 22 0 28 -14 11 -25 -17 -11 -11 -25 11 -25 11 0 28 9
37 20 10 11 31 23 47 26 41 6 85 25 85 35 0 4 -10 17 -21 28 -30 27 -19 46 35
61 25 7 79 32 120 56 203 119 386 370 494 676 30 83 67 222 77 288 3 19 8 46
10 60 15 73 19 259 10 369 -8 95 -47 243 -84 326 -113 249 -316 397 -601 440
-44 7 -247 15 -252 10z"/>
</g>
</svg>
