<?xml version="1.0" encoding="utf-8"?>
<!-- Generator: Adobe Illustrator 19.2.1, SVG Export Plug-In . SVG Version: 6.00 Build 0)  -->
<svg version="1.1" id="Layer_1" xmlns="http://www.w3.org/2000/svg" xmlns:xlink="http://www.w3.org/1999/xlink" x="0px" y="0px"
	 viewBox="0 0 64 64" style="enable-background:new 0 0 64 64;" xml:space="preserve">
<style type="text/css">
	.st0{fill:#3B9768;}
	.st1{fill:none;stroke:#3B9768;stroke-width:2;stroke-miterlimit:10;}
</style>
<rect x="29" y="13" class="st0" width="2" height="39"/>
<rect x="33" y="13" class="st0" width="2" height="39"/>
<path class="st1" d="M41,23c0,0,0-6-9-6s-8,7-8,7s0,7,8,7c9,0,10,6,10,7c0,2,1,8-10,8c-9,0-9-4-9-5"/>
<path class="st1" d="M53.9,10.1C66,22.2,66,41.8,53.9,53.9s-31.7,12.1-43.8,0s-12.1-31.7,0-43.8S41.8-2,53.9,10.1z"/>
</svg>
